<svg xmlns="http://www.w3.org/2000/svg" viewBox="0 0 12 12.26"><g id="Layer_2" data-name="Layer 2"><g id="Layer_1-2" data-name="Layer 1"><path d="M12,6.27a7.16,7.16,0,0,0-.1-1.16H6.13v2.3H9.44A2.85,2.85,0,0,1,8.21,9.24v1.53h2A6,6,0,0,0,12,6.27Z" style="fill:#4285f4"/><path d="M6.13,12.26a5.8,5.8,0,0,0,4.05-1.49l-2-1.53A3.7,3.7,0,0,1,2.69,7.3h-2V8.88A6.12,6.12,0,0,0,6.13,12.26Z" style="fill:#34a853"/><path d="M2.69,7.3A3.5,3.5,0,0,1,2.5,6.13,3.77,3.77,0,0,1,2.69,5V3.38h-2a6.06,6.06,0,0,0,0,5.5Z" style="fill:#fbbc05"/><path d="M6.13,2.43a3.33,3.33,0,0,1,2.35.92L10.23,1.6A5.87,5.87,0,0,0,6.13,0,6.12,6.12,0,0,0,.66,3.38L2.69,5A3.66,3.66,0,0,1,6.13,2.43Z" style="fill:#ea4335"/></g></g></svg>