<svg xmlns="http://www.w3.org/2000/svg" xmlns:xlink="http://www.w3.org/1999/xlink" viewBox="0 0 26.87 11.97"><defs><linearGradient id="linear-gradient" y1="5.98" x2="26.87" y2="5.98" gradientUnits="userSpaceOnUse"><stop offset="0" stop-color="#464a4c"/><stop offset="1" stop-color="#262628"/></linearGradient></defs><g id="Layer_2" data-name="Layer 2"><g id="Layer_1-2" data-name="Layer 1"><path d="M24.45,4.14a4,4,0,0,0-2.36-.29A12,12,0,0,0,13.72,0,12,12,0,0,0,4.64,3.84a4.09,4.09,0,1,0,3,2.08A8.19,8.19,0,0,1,19.14,6c0,.07-.07.13-.09.19a4.09,4.09,0,1,0,5.4-2.07Zm.94,4.91a2.86,2.86,0,0,1-5.34-2,1.61,1.61,0,0,1,.12-.35A2.86,2.86,0,0,1,23.05,5a3.34,3.34,0,0,1,.9.24A2.87,2.87,0,0,1,25.39,9.05Z" style="fill:url(#linear-gradient)"/></g></g></svg>