<svg xmlns="http://www.w3.org/2000/svg" viewBox="0 0 64.94 74.43"><g id="Layer_2" data-name="Layer 2"><g id="Layer_1-2" data-name="Layer 1"><path d="M16.06,46.47c-.65,1.11-1.26,2-1.7,2.94a4.29,4.29,0,0,1-2.67,2.29C8,53,4.33,54.42.66,55.78c-.13,0-.27.08-.66.18L16.05,28.3l16.27,28,2-3.28c1.11-1.92,1.1-1.92,0-3.86Q26.89,36.52,19.53,23.86a1.37,1.37,0,0,1,0-1.55Q25.87,11.44,32.16.54c.09-.15.21-.27.42-.54L64.94,55.76l-.13.17L62.28,55l-9.53-3.55a2.87,2.87,0,0,1-1.62-1.29Q42.36,35,33.54,19.79c-.29-.5-.61-1-1-1.67-.61,1.05-1.14,1.92-1.64,2.82-1.46,2.6-1.55,1.59,0,4.24q7.29,12.65,14.65,25.24a1.26,1.26,0,0,1,0,1.46q-5.2,8.85-10.36,17.73c-.76,1.31-1.5,2.63-2.26,4-.14.25-.32.48-.58.87C26.88,65.1,21.53,55.89,16.06,46.47Z" style="fill:#262628"/></g></g></svg>