<svg xmlns="http://www.w3.org/2000/svg" viewBox="0 0 495.22 343.33"><g id="Layer_2" data-name="Layer 2"><g id="Layer_1-2" data-name="Layer 1"><path d="M57.71,297.44s-63-29-40.86-49.11S57.71,297.44,57.71,297.44Z" style="fill:#262628"/><path d="M56.61,304.2S27.66,209.08,70.3,213.63,56.61,304.2,56.61,304.2Z" style="fill:#262628"/><path d="M35.51,295.77l1.21,15.91,0,.27a71,71,0,0,0,.38,7.44c1.65,16.24,8.73,23.63,17,23.63s15.06-7.39,16.71-23.63a73.84,73.84,0,0,0,.38-7.44v-.27l1.22-15.91Z" style="fill:#262628"/><path d="M71.24,311.68V312a73.84,73.84,0,0,1-.38,7.44H37.12a71,71,0,0,1-.38-7.44l0-.27Z" style="fill:#464a4c"/><path d="M468.54,307.17s-48.77-22.45-31.64-38S468.54,307.17,468.54,307.17Z" style="fill:#262628"/><path d="M467.69,312.41s-22.42-73.65,10.59-70.13S467.69,312.41,467.69,312.41Z" style="fill:#262628"/><path d="M451.35,305.88l.94,12.32v.21q0,2.88.29,5.76c1.28,12.56,6.77,18.29,13.18,18.29s11.66-5.73,12.94-18.29a55.54,55.54,0,0,0,.29-5.76v-.21l.95-12.32Z" style="fill:#262628"/><path d="M479,318.2v.21a55.54,55.54,0,0,1-.29,5.76H452.59q-.29-2.88-.29-5.76v-.21Z" style="fill:#464a4c"/><path d="M164.17,102.41V80.76h-3.36v21.65a4.49,4.49,0,1,0,3.36,0Z" style="fill:#464a4c"/><path d="M172,320.82H149V41.5h-9V320.82h-23a20.75,20.75,0,0,0-20.75,20.75h96.47A20.75,20.75,0,0,0,172,320.82Z" style="fill:#464a4c"/><path d="M96.36,83h96.37L186.84,9.34A10.21,10.21,0,0,0,176.72,0H112.37a10.21,10.21,0,0,0-10.12,9.34Z" style="fill:#262628"/><path d="M230.55,212.3h0a6.94,6.94,0,0,0-8,5.7s0,.07,0,.1l-2.71,17.8,9.23,2.45,6.76-16.59a6.92,6.92,0,0,0-3.8-9A6.55,6.55,0,0,0,230.55,212.3Z" style="fill:#a0616a"/><path d="M230.37,235.87c5.13,20.36,2.92,39-16.16,53.61-22.88-6.31-38.1-21.53-47.38-43.65a11,11,0,0,1,5.9-14.45,4.37,4.37,0,0,1,.46-.18h0a11,11,0,0,1,12.15,3.13l22.45,25.91,10.54-26.13Z" style="fill:#262628"/><path d="M347.62,342.69c-20.9-1.11-33.88-8.28-37-23l3.37-6.17,38.52,17.55a5.39,5.39,0,0,1-.37,10Z" style="fill:#464a4c"/><path d="M331.47,342.84c-10.85-.33-21.29-.23-31.19.44a6.59,6.59,0,0,1-7-6.06l-.6-7.43-8.41-13.46,7.29-7.29c12.25,12.2,25.69,22.46,41.65,28.55a2.88,2.88,0,0,1-1.71,5.25Z" style="fill:#464a4c"/><path d="M272.46,290C258.6,314.78,245,331.5,227,340.45c-22.06,7.28-38.19-2.37-50.76-22.15l36.46-24.12,5.33,5.33,48.29-36.75A6.16,6.16,0,0,1,275,263l41.19,50.58-5,8.41Z" style="fill:#2f2e41"/><polygon points="284.8 319.14 265.73 289.97 270.22 281.56 295.46 307.92 284.8 319.14" style="fill:#2f2e41"/><circle cx="174.87" cy="206.96" r="19.07" style="fill:#a0616a"/><path d="M179.92,242.3,158.61,235a26.5,26.5,0,0,0,3.92-16.83h17.39A91.33,91.33,0,0,0,179.92,242.3Z" style="fill:#a0616a"/><path d="M225.35,293.34c-3.2,1.31-3.43,5.56-6.45,7-14.61,7-30.06,12.66-40.66,22.71-24.79-16.83-47.76-69.11-18-92,10.17,6,19.26,10.22,19.07,0Z" style="fill:#262628"/><path d="M212.45,270.9l-10.38-3.64-20.47,16-9.18-33c-.63-2.29-1.66-1.13-3.14.47a11,11,0,0,0-18.51,7.6c-1.1,24,6.13,44.24,24.1,59.74,23.51-5,33.48-20.91,37.58-41.5l-1.11-.74C211.75,274.18,212.12,272.56,212.45,270.9Z" style="opacity:0.20000000298023224;isolation:isolate"/><path d="M177.44,181.88c6.29,1.44,13.45,3.47,13.85,5.36,6.47,1.63,11.35,5.54,12.35,11.49a3.57,3.57,0,0,1-2.95,4.09,3.35,3.35,0,0,1-.63.05c-3.52-.05-8.8-.38-12.29-1.84-10.13,6.53-11.83,23.51-7.41,35.07l-7-.64-7.2-21.09-1.84,20.26-15.89-2.1,2-25.83a38.4,38.4,0,0,1,6.05-17.07,13.46,13.46,0,0,1,1.13-1.48A20.21,20.21,0,0,1,177.44,181.88Z" style="fill:#2f2e41"/><polygon points="213.29 245.9 230.74 266.42 256.92 235.52 239.23 214.06 213.29 245.9" style="fill:#3f3d56"/><path d="M252.44,236.23l-20.76-17c1.18-2.83,6.84-1.89,6.84-1.89l16.25,16.47a8.75,8.75,0,0,1,1.44,1.93h0Z" style="fill:#f2f2f2"/><path d="M253.38,235.05l-23.58-18.4-26.18,39.63,24.64,16.62a5.5,5.5,0,0,0,4.72-.7L257,235.4Z" style="fill:#3f3d56"/><rect x="239.98" y="218.68" width="0.38" height="18.59" transform="translate(-85.11 289.98) rotate(-54.3)" style="fill:#262628"/><rect x="220.33" y="252.19" width="35.91" height="0.38" transform="translate(-103.67 311.9) rotate(-56.52)" style="fill:#262628"/><rect x="217.81" y="252.46" width="0.38" height="19.91" transform="translate(-122.55 282.49) rotate(-53.66)" style="fill:#262628"/><rect x="201.82" y="237.57" width="35.92" height="0.38" transform="translate(-100.92 282.32) rotate(-55.16)" style="fill:#262628"/><rect x="245.35" y="213.11" width="0.24" height="25.33" transform="translate(-86.85 253.96) rotate(-47.46)" style="fill:#b3b3b3"/><rect x="244.22" y="212.96" width="0.24" height="26.02" transform="translate(-86.77 259.59) rotate(-48.56)" style="fill:#b3b3b3"/><rect x="243.37" y="212.97" width="0.24" height="26.36" transform="translate(-86.13 268.38) rotate(-50.19)" style="fill:#b3b3b3"/><path d="M222.71,251.92h0a6.94,6.94,0,0,0-9.66,1.74l-.05.07-10.09,14.93,7.3,6.17,13.22-12.09a6.94,6.94,0,0,0,.44-9.8A7.5,7.5,0,0,0,222.71,251.92Z" style="fill:#a0616a"/><path d="M212.45,273.15c-4.1,20.59-14.07,36.47-37.58,41.5-18-15.51-25.2-35.78-24.1-59.75a11,11,0,0,1,11.53-10.52l.49,0h0a11,11,0,0,1,9.63,8l9.18,33,20.72-19.09Z" style="fill:#262628"/><polygon points="495 343.33 0 343.33 0 342.11 495.22 342.11 495 343.33" style="fill:#3f3d56"/><path d="M258.72,51.32a1.12,1.12,0,0,0-1.12,1.12v87.5a1.12,1.12,0,0,0,1.12,1.12h72.91a1.13,1.13,0,0,0,1.13-1.12V52.44a1.14,1.14,0,0,0-1.13-1.12Z" style="fill:#e6e6e6"/><path d="M266.29,132.37h57.77V60H266.29Z" style="fill:#fff"/><path d="M380.11,74.32a.67.67,0,0,0-.67.67v43.53a.67.67,0,0,0,.67.67h52.24a.67.67,0,0,0,.67-.67V75a.67.67,0,0,0-.67-.67Z" style="fill:#e6e6e6"/><path d="M384.63,79.51V114h43.2V79.51Z" style="fill:#fff"/><path d="M305.38,57.49H285a2.79,2.79,0,0,1-2.81-2.78,2.82,2.82,0,0,1,.38-1.42l10.2-17.67,0,0a2.78,2.78,0,0,1,2.13-1.35h.28a2.78,2.78,0,0,1,2.43,1.4l10.2,17.67a2.81,2.81,0,0,1-1,3.83,2.87,2.87,0,0,1-1.4.37Zm-21-2.8a.57.57,0,0,0,.08.28.58.58,0,0,0,.49.28h20.4a.56.56,0,0,0,.48-.28.57.57,0,0,0,.08-.28.54.54,0,0,0-.08-.28l-10.2-17.67a.55.55,0,0,0-.76-.2.51.51,0,0,0-.21.2l-10.2,17.67A.54.54,0,0,0,284.41,54.69Z" style="fill:#e6e6e6"/><circle cx="295.18" cy="37.86" r="1.68" style="fill:#e6e6e6"/><path d="M411.76,75.72H400.7a1.51,1.51,0,0,1-1.52-1.51,1.48,1.48,0,0,1,.2-.77l5.53-9.58,0,0a1.46,1.46,0,0,1,1.15-.73h.15a1.53,1.53,0,0,1,1.32.76l5.53,9.58a1.52,1.52,0,0,1-.56,2.08,1.54,1.54,0,0,1-.76.2ZM400.39,74.2a.37.37,0,0,0,0,.15.29.29,0,0,0,.27.15h11.06a.26.26,0,0,0,.26-.15.3.3,0,0,0,0-.3l-5.53-9.58a.29.29,0,0,0-.41-.11.23.23,0,0,0-.11.11l-5.54,9.58a.37.37,0,0,0,0,.15Z" style="fill:#e6e6e6"/><circle cx="406.23" cy="65.08" r="0.91" style="fill:#e6e6e6"/><path d="M267,104.82a14.88,14.88,0,0,1,8.56-8,14.72,14.72,0,0,1,12.24.76c4.37,2.33,7.87,6,12.32,8.2A31.62,31.62,0,0,0,314,109a31.19,31.19,0,0,0,15.59-4,.84.84,0,0,0-.85-1.45,30,30,0,0,1-28.29.52c-4.46-2.34-8-6.12-12.53-8.31a16.22,16.22,0,0,0-12.47-.7,16.76,16.76,0,0,0-10.09,9.34c-.41,1,1.22,1.44,1.62.45Z" style="fill:#e6e6e6"/><path d="M265.62,120.55a64,64,0,0,1,28.35.1c8.28,1.92,16.83,5.37,25.37,2.79a15.41,15.41,0,0,0,9.27-7c.53-1-.93-1.8-1.45-.85-3.69,6.67-12.34,7.8-19.16,6.7-4.57-.73-9-2.2-13.45-3.25a65.74,65.74,0,0,0-29.37-.13c-1.06.24-.61,1.86.44,1.63Z" style="fill:#e6e6e6"/><path d="M265,82.94a66.47,66.47,0,0,1,26.94,1c8.24,2,16.3,6.64,25,5.84a16.13,16.13,0,0,0,10.77-4.94c.71-.81-.47-2-1.19-1.19A14.29,14.29,0,0,1,317.29,88a29.55,29.55,0,0,1-11.82-1.59c-4.24-1.32-8.36-3-12.68-4.06a68.16,68.16,0,0,0-28.22-1.06c-1.07.19-.61,1.81.45,1.63Z" style="fill:#e6e6e6"/><path d="M392.15,78.94a29.34,29.34,0,0,1,7.7,14.35,29,29,0,0,1-6.26,24.6c-.7.82.48,2,1.19,1.19A31.13,31.13,0,0,0,401.9,103a30.7,30.7,0,0,0-8.56-25.25c-.76-.77-1.95.42-1.19,1.19Z" style="fill:#e6e6e6"/><path d="M417.4,75.35A21.65,21.65,0,0,0,409,91.55a26.59,26.59,0,0,0,6.12,18,35,35,0,0,0,8.32,7.51c.91.6,1.76-.86.85-1.45a31.05,31.05,0,0,1-11.9-13.9,22.54,22.54,0,0,1,0-17.24,18.4,18.4,0,0,1,6-7.69c.86-.63,0-2.09-.85-1.45Z" style="fill:#e6e6e6"/><circle cx="299.1" cy="84.41" r="7.85" style="fill:#e6e6e6"/></g></g></svg>